# xmcd
#
# Track frame offsets:
#	150
#	10360
#	23127
#	35730
#	49282
#	58830
#	68127
#	75767
#	83922
#	93685
#	105552
#	115607
#
# Disc length: 1717 seconds
#
# Revision: 1
# Processed by: cddbd v1.5.1PL0 Copyright (c) Steve Scherf et al.
# Submitted via: audiograbber 1.83.01
#
DISCID=9406b30c
DTITLE=Ralph Stanley and James King - Stanley Brothers Classics
DYEAR=1985
DGENRE=Bluegrass
TTITLE0=Don't Go Out Tonight
TTITLE1=Another Night
TTITLE2=Our Last Goodbye
TTITLE3=It's Never Too Late
TTITLE4=Let Me Be Your Friend
TTITLE5=Poison Lies
TTITLE6=Loving You Too Well
TTITLE7=Nobody's Love Is Like Mine
TTITLE8=Baby Girl
TTITLE9=Lonesome Without You
TTITLE10=Trust Each Other
TTITLE11=What About You
EXTD=
EXTT0=
EXTT1=
EXTT2=
EXTT3=
EXTT4=
EXTT5=
EXTT6=
EXTT7=
EXTT8=
EXTT9=
EXTT10=
EXTT11=
PLAYORDER=
